<svg xmlns="http://www.w3.org/2000/svg" xml:space="preserve" style="fill-rule:evenodd;clip-rule:evenodd;stroke-linejoin:round;stroke-miterlimit:2" viewBox="0 0 75 75"><path d="M0 0h75v74.937H0z" style="fill:none"/><path fill="none" d="m39.106 48.365 9.101 5.252H30.005z" style="fill:#6b39da;fill-opacity:0"/><path d="m39.106 48.365 9.101 5.252H30.005zm0 1.929-2.862 1.651h5.723l-2.862-1.651Z" style="fill:#00f5ff"/><path d="M63.824 28.738v14.836c0 4.094-3.324 7.418-7.418 7.418H22.451c-4.094 0-7.418-3.324-7.418-7.418V28.738c0-4.094 3.324-7.418 7.418-7.418h33.955c4.094 0 7.418 3.324 7.418 7.418" style="fill:#b8ffff"/><path fill="none" d="M63.824 28.738v14.836c0 4.094-3.324 7.418-7.418 7.418H22.451c-4.094 0-7.418-3.324-7.418-7.418V28.738c0-4.094 3.324-7.418 7.418-7.418h33.955c4.094 0 7.418 3.324 7.418 7.418" style="fill:#00f5ff;fill-opacity:0"/><path d="M63.824 28.738v14.836c0 4.094-3.324 7.418-7.418 7.418H22.451c-4.094 0-7.418-3.324-7.418-7.418V28.738c0-4.094 3.324-7.418 7.418-7.418h33.955c4.094 0 7.418 3.324 7.418 7.418m-1.671 0c0-3.172-2.575-5.747-5.747-5.747H22.451c-3.172 0-5.747 2.575-5.747 5.747v14.836c0 3.172 2.575 5.747 5.747 5.747h33.955c3.172 0 5.747-2.575 5.747-5.747z" style="fill:#00f5ff"/><path d="M29.486 39.872v9.163c0 2.529-2.053 4.582-4.582 4.582H9.729c-2.529 0-4.582-2.053-4.582-4.582v-9.163c0-2.529 2.053-4.582 4.582-4.582h15.175c2.529 0 4.582 2.053 4.582 4.582" style="fill:#b8ffff"/><path fill="none" d="M29.486 39.872v9.163c0 2.529-2.053 4.582-4.582 4.582H9.729c-2.529 0-4.582-2.053-4.582-4.582v-9.163c0-2.529 2.053-4.582 4.582-4.582h15.175c2.529 0 4.582 2.053 4.582 4.582" style="fill:#6b39da;fill-opacity:0"/><path d="M29.486 39.872v9.163c0 2.529-2.053 4.582-4.582 4.582H9.729c-2.529 0-4.582-2.053-4.582-4.582v-9.163c0-2.529 2.053-4.582 4.582-4.582h15.175c2.529 0 4.582 2.053 4.582 4.582m-1.671 0c0-1.606-1.304-2.911-2.911-2.911H9.729c-1.606 0-2.911 1.304-2.911 2.911v9.163c0 1.606 1.304 2.911 2.911 2.911h15.175c1.606 0 2.911-1.304 2.911-2.911z" style="fill:#00f5ff"/><path d="M66.838 53.617h-6.029c-1.664 0-3.015-1.351-3.015-3.015V38.037c0-1.664 1.351-3.015 3.015-3.015h6.029c1.664 0 3.015 1.351 3.015 3.015v12.565c0 1.664-1.351 3.015-3.015 3.015" style="fill:#b8ffff"/><path fill="none" d="M66.838 53.617h-6.029c-1.664 0-3.015-1.351-3.015-3.015V38.037c0-1.664 1.351-3.015 3.015-3.015h6.029c1.664 0 3.015 1.351 3.015 3.015v12.565c0 1.664-1.351 3.015-3.015 3.015" style="fill:#6b39da;fill-opacity:0"/><path d="M66.838 53.617h-6.029c-1.664 0-3.015-1.351-3.015-3.015V38.037c0-1.664 1.351-3.015 3.015-3.015h6.029c1.664 0 3.015 1.351 3.015 3.015v12.565c0 1.664-1.351 3.015-3.015 3.015m0-1.671c.742 0 1.344-.602 1.344-1.344V38.037c0-.742-.602-1.344-1.344-1.344h-6.029c-.742 0-1.344.602-1.344 1.344v12.565c0 .742.602 1.344 1.344 1.344z" style="fill:#00f5ff"/></svg>