<?xml version="1.0" encoding="UTF-8" standalone="no"?><!DOCTYPE svg PUBLIC "-//W3C//DTD SVG 1.1//EN" "http://www.w3.org/Graphics/SVG/1.1/DTD/svg11.dtd"><svg width="100%" height="100%" viewBox="0 0 75 75" version="1.1" xmlns="http://www.w3.org/2000/svg" xmlns:xlink="http://www.w3.org/1999/xlink" xml:space="preserve" xmlns:serif="http://www.serif.com/" style="fill-rule:evenodd;clip-rule:evenodd;stroke-linejoin:round;stroke-miterlimit:2;"><rect id="Displays-Icon" x="0" y="0" width="75" height="74.937" style="fill:none;"/><g id="Desktop"><path d="M39.106,48.365l9.101,5.252l-18.202,0l9.101,-5.252Z" style="fill:#6b39da;fill-opacity:0;"/><path d="M39.106,48.365l9.101,5.252l-18.202,0l9.101,-5.252Zm0,1.929l-2.862,1.651l5.723,-0l-2.862,-1.651Z" style="fill:#00f5ff;"/><path id="Desktop1" serif:id="Desktop" d="M63.824,28.738l0,14.836c0,4.094 -3.324,7.418 -7.418,7.418l-33.955,0c-4.094,0 -7.418,-3.324 -7.418,-7.418l0,-14.836c0,-4.094 3.324,-7.418 7.418,-7.418l33.955,0c4.094,0 7.418,3.324 7.418,7.418Z" style="fill:#b8ffff;"/><path id="Desktop-line" d="M63.824,28.738l0,14.836c0,4.094 -3.324,7.418 -7.418,7.418l-33.955,0c-4.094,0 -7.418,-3.324 -7.418,-7.418l0,-14.836c0,-4.094 3.324,-7.418 7.418,-7.418l33.955,0c4.094,0 7.418,3.324 7.418,7.418Z" style="fill:#00f5ff;fill-opacity:0;"/><path d="M63.824,28.738l0,14.836c0,4.094 -3.324,7.418 -7.418,7.418l-33.955,0c-4.094,0 -7.418,-3.324 -7.418,-7.418l0,-14.836c0,-4.094 3.324,-7.418 7.418,-7.418l33.955,0c4.094,0 7.418,3.324 7.418,7.418Zm-1.671,-0c0,-3.172 -2.575,-5.747 -5.747,-5.747l-33.955,0c-3.172,0 -5.747,2.575 -5.747,5.747l0,14.836c0,3.172 2.575,5.747 5.747,5.747l33.955,0c3.172,0 5.747,-2.575 5.747,-5.747l0,-14.836Z" style="fill:#00f5ff;"/></g><g id="Tablet"><path id="Tablet1" serif:id="Tablet" d="M29.486,39.872l0,9.163c0,2.529 -2.053,4.582 -4.582,4.582l-15.175,0c-2.529,0 -4.582,-2.053 -4.582,-4.582l0,-9.163c0,-2.529 2.053,-4.582 4.582,-4.582l15.175,0c2.529,0 4.582,2.053 4.582,4.582Z" style="fill:#b8ffff;"/><path id="Tablet-border" d="M29.486,39.872l0,9.163c0,2.529 -2.053,4.582 -4.582,4.582l-15.175,0c-2.529,0 -4.582,-2.053 -4.582,-4.582l0,-9.163c0,-2.529 2.053,-4.582 4.582,-4.582l15.175,0c2.529,0 4.582,2.053 4.582,4.582Z" style="fill:#6b39da;fill-opacity:0;"/><path d="M29.486,39.872l0,9.163c0,2.529 -2.053,4.582 -4.582,4.582l-15.175,0c-2.529,0 -4.582,-2.053 -4.582,-4.582l0,-9.163c0,-2.529 2.053,-4.582 4.582,-4.582l15.175,0c2.529,0 4.582,2.053 4.582,4.582Zm-1.671,-0c0,-1.606 -1.304,-2.911 -2.911,-2.911l-15.175,0c-1.606,0 -2.911,1.304 -2.911,2.911l0,9.163c0,1.606 1.304,2.911 2.911,2.911l15.175,0c1.606,0 2.911,-1.304 2.911,-2.911l0,-9.163Z" style="fill:#00f5ff;"/></g><g id="Mobile"><path id="Mobile1" serif:id="Mobile" d="M66.838,53.617l-6.029,0c-1.664,0 -3.015,-1.351 -3.015,-3.015l0,-12.565c0,-1.664 1.351,-3.015 3.015,-3.015l6.029,0c1.664,0 3.015,1.351 3.015,3.015l0,12.565c0,1.664 -1.351,3.015 -3.015,3.015Z" style="fill:#b8ffff;"/><path id="Mobile-border" d="M66.838,53.617l-6.029,0c-1.664,0 -3.015,-1.351 -3.015,-3.015l0,-12.565c0,-1.664 1.351,-3.015 3.015,-3.015l6.029,0c1.664,0 3.015,1.351 3.015,3.015l0,12.565c0,1.664 -1.351,3.015 -3.015,3.015Z" style="fill:#6b39da;fill-opacity:0;"/><path d="M66.838,53.617l-6.029,0c-1.664,0 -3.015,-1.351 -3.015,-3.015l0,-12.565c0,-1.664 1.351,-3.015 3.015,-3.015l6.029,0c1.664,0 3.015,1.351 3.015,3.015l-0,12.565c0,1.664 -1.351,3.015 -3.015,3.015Zm-0,-1.671c0.742,0 1.344,-0.602 1.344,-1.344l0,-12.565c0,-0.742 -0.602,-1.344 -1.344,-1.344l-6.029,0c-0.742,0 -1.344,0.602 -1.344,1.344l0,12.565c0,0.742 0.602,1.344 1.344,1.344l6.029,0Z" style="fill:#00f5ff;"/></g></svg>