<?xml version="1.0" encoding="UTF-8" standalone="no"?><!DOCTYPE svg PUBLIC "-//W3C//DTD SVG 1.1//EN" "http://www.w3.org/Graphics/SVG/1.1/DTD/svg11.dtd"><svg width="100%" height="100%" viewBox="0 0 1252 1358" version="1.1" xmlns="http://www.w3.org/2000/svg" xmlns:xlink="http://www.w3.org/1999/xlink" xml:space="preserve" xmlns:serif="http://www.serif.com/" style="fill-rule:evenodd;clip-rule:evenodd;stroke-linejoin:round;stroke-miterlimit:2;"><g id="Imagotipo"><path d="M1251.027,312.757l0,731.994c0,172.615 -140.142,312.757 -312.757,312.757l-625.514,0c-172.615,0 -312.757,-140.142 -312.757,-312.757l0,-731.994c0,-172.615 140.142,-312.757 312.757,-312.757l625.514,0c172.615,0 312.757,140.142 312.757,312.757Z" style="fill:#060000;"/><path d="M1023.273,101.875c-110.936,-30.14 -225.301,35.358 -255.441,146.295c-65.236,240.114 -172.563,635.153 -228.274,840.211c-9.57,35.225 -4.755,72.808 13.385,104.483c18.141,31.675 48.121,54.846 83.345,64.416c0,0 0,0 0.001,0c74.262,20.176 150.819,-23.669 170.994,-97.931c83.742,-308.229 282.399,-1039.43 282.399,-1039.43c0,0 -28.264,-7.679 -66.41,-18.043Z" style="fill:url(#_Linear1);"/><path d="M225.712,141.058c107.526,-40.662 227.656,13.541 268.319,121.067c88.011,232.733 232.808,615.628 307.97,814.382c12.911,34.142 11.731,72.014 -3.281,105.286c-15.012,33.271 -42.627,59.217 -76.768,72.128c-0,0 -0,0 -0.001,0c-71.979,27.22 -152.395,-9.065 -179.615,-81.043c-112.978,-298.754 -380.992,-1007.477 -380.992,-1007.477c-0,0 27.395,-10.36 64.369,-24.342Z" style="fill:#4ca7ed;"/></g><defs><linearGradient id="_Linear1" x1="0" y1="0" x2="1" y2="0" gradientUnits="userSpaceOnUse" gradientTransform="matrix(-215.263067,750.729988,-750.729988,-215.263067,925.533577,180.165138)"><stop offset="0" style="stop-color:#1198ff;stop-opacity:1"/><stop offset="1" style="stop-color:#0063b0;stop-opacity:1"/></linearGradient></defs></svg>