<svg xmlns="http://www.w3.org/2000/svg" xml:space="preserve" style="fill-rule:evenodd;clip-rule:evenodd;stroke-linejoin:round;stroke-miterlimit:2" viewBox="0 0 1252 1358"><path d="M1251 313v732c0 172-140 313-313 313H313A313 313 0 0 1 0 1045V313C0 140 140 0 313 0h625c173 0 313 140 313 313" style="fill:#060000"/><path d="M1023 102a208 208 0 0 0-255 146l-228 840a138 138 0 0 0 96 169c75 20 151-23 171-98l283-1039z" style="fill:url(#a)"/><path d="M226 141c107-41 227 14 268 121l308 815a138 138 0 0 1-80 177c-72 27-152-9-180-81L161 165z" style="fill:#4ca7ed"/><defs><linearGradient id="a" x1="0" x2="1" y1="0" y2="0" gradientTransform="rotate(106 395 439)scale(781)" gradientUnits="userSpaceOnUse"><stop offset="0" style="stop-color:#1198ff;stop-opacity:1"/><stop offset="1" style="stop-color:#0063b0;stop-opacity:1"/></linearGradient></defs></svg>