<svg xmlns="http://www.w3.org/2000/svg" xml:space="preserve" style="fill-rule:evenodd;clip-rule:evenodd;stroke-linejoin:round;stroke-miterlimit:2" viewBox="0 0 75 75"><path d="M0 0h75v74.937H0z" style="fill:none"/><path fill="none" d="M71.15 27.3v20.337c0 5.612-4.556 10.169-10.169 10.169H14.018c-5.612 0-10.169-4.556-10.169-10.169V27.3c0-5.612 4.556-10.169 10.169-10.169h46.963c5.612 0 10.169 4.556 10.169 10.169" style="fill:#00f5ff;fill-opacity:0"/><path d="M71.15 27.3v20.337c0 5.612-4.556 10.169-10.169 10.169H14.018c-5.612 0-10.169-4.556-10.169-10.169V27.3c0-5.612 4.556-10.169 10.169-10.169h46.963c5.612 0 10.169 4.556 10.169 10.169m-3.333 0a6.84 6.84 0 0 0-6.835-6.835H14.019A6.84 6.84 0 0 0 7.184 27.3v20.337a6.84 6.84 0 0 0 6.835 6.835h46.963a6.84 6.84 0 0 0 6.835-6.835z" style="fill:#00f5ff"/><text x="10.857" y="50.65" style="font-family:&quot;ArialRoundedMTBold&quot;,&quot;Arial Rounded MT Bold&quot;,sans-serif;font-size:36.83px;fill:#00f5ff">&lt;/&gt;</text></svg>