<?xml version="1.0" encoding="UTF-8" standalone="no"?><!DOCTYPE svg PUBLIC "-//W3C//DTD SVG 1.1//EN" "http://www.w3.org/Graphics/SVG/1.1/DTD/svg11.dtd"><svg width="100%" height="100%" viewBox="0 0 75 75" version="1.1" xmlns="http://www.w3.org/2000/svg" xmlns:xlink="http://www.w3.org/1999/xlink" xml:space="preserve" xmlns:serif="http://www.serif.com/" style="fill-rule:evenodd;clip-rule:evenodd;stroke-linejoin:round;stroke-miterlimit:2;"><rect id="Pure-code-Icon" x="0" y="0" width="75" height="74.937" style="fill:none;"/><path d="M71.15,27.3l0,20.337c0,5.612 -4.556,10.169 -10.169,10.169l-46.963,0c-5.612,0 -10.169,-4.556 -10.169,-10.169l-0,-20.337c0,-5.612 4.556,-10.169 10.169,-10.169l46.963,0c5.612,0 10.169,4.556 10.169,10.169Z" style="fill:#00f5ff;fill-opacity:0;"/><path d="M71.15,27.3l0,20.337c0,5.612 -4.556,10.169 -10.169,10.169l-46.963,0c-5.612,0 -10.169,-4.556 -10.169,-10.169l-0,-20.337c0,-5.612 4.556,-10.169 10.169,-10.169l46.963,0c5.612,0 10.169,4.556 10.169,10.169Zm-3.333,0c0,-3.772 -3.063,-6.835 -6.835,-6.835l-46.963,0c-3.772,0 -6.835,3.063 -6.835,6.835l0,20.337c0,3.772 3.063,6.835 6.835,6.835l46.963,0c3.772,0 6.835,-3.063 6.835,-6.835l0,-20.337Z" style="fill:#00f5ff;"/><g transform="matrix(36.830249,0,0,36.830249,64.142585,50.650235)"></g><text x="10.857px" y="50.65px" style="font-family:'ArialRoundedMTBold', 'Arial Rounded MT Bold', sans-serif;font-size:36.83px;fill:#00f5ff;">&lt;/&gt;</text></svg>