<svg xmlns="http://www.w3.org/2000/svg" xml:space="preserve" style="fill-rule:evenodd;clip-rule:evenodd;stroke-linecap:round;stroke-linejoin:round;stroke-miterlimit:1.5" viewBox="0 0 75 75"><path d="M0 0h75v74.937H0z" style="fill:none"/><ellipse cx="20.267" cy="34.696" fill="none" rx="6.129" ry="5.632" style="fill:#00f5ff;fill-opacity:0"/><path d="M20.267 29.064c3.383 0 6.129 2.524 6.129 5.632s-2.746 5.632-6.129 5.632-6.129-2.524-6.129-5.632 2.746-5.632 6.129-5.632m0 2.083c-2.187 0-4.046 1.539-4.046 3.549s1.859 3.549 4.046 3.549 4.046-1.539 4.046-3.549-1.859-3.549-4.046-3.549" style="fill:#00f5ff"/><path d="m22.535 39.024 2.634 5.361" style="fill:none;stroke:#00f5ff;stroke-width:2.08px"/><path d="M34.543 37.468h22.346" style="fill:none;stroke:#00f5ff;stroke-width:6.67px"/><path fill="none" d="M68.377 31.08v12.777a6.39 6.39 0 0 1-6.388 6.388H13.011a6.39 6.39 0 0 1-6.388-6.388V31.08a6.39 6.39 0 0 1 6.388-6.388h48.978a6.39 6.39 0 0 1 6.388 6.388" style="fill:#00f5ff;fill-opacity:0"/><path d="M68.377 31.08v12.777a6.39 6.39 0 0 1-6.388 6.388H13.011a6.39 6.39 0 0 1-6.388-6.388V31.08a6.39 6.39 0 0 1 6.388-6.388h48.978a6.39 6.39 0 0 1 6.388 6.388m-3.333 0a3.057 3.057 0 0 0-3.055-3.055H13.011a3.057 3.057 0 0 0-3.055 3.055v12.777a3.057 3.057 0 0 0 3.055 3.055h48.978a3.057 3.057 0 0 0 3.055-3.055z" style="fill:#00f5ff"/></svg>