<?xml version="1.0" encoding="UTF-8" standalone="no"?><!DOCTYPE svg PUBLIC "-//W3C//DTD SVG 1.1//EN" "http://www.w3.org/Graphics/SVG/1.1/DTD/svg11.dtd"><svg width="100%" height="100%" viewBox="0 0 75 75" version="1.1" xmlns="http://www.w3.org/2000/svg" xmlns:xlink="http://www.w3.org/1999/xlink" xml:space="preserve" xmlns:serif="http://www.serif.com/" style="fill-rule:evenodd;clip-rule:evenodd;stroke-linecap:round;stroke-linejoin:round;stroke-miterlimit:1.5;"><rect id="SEO-Icon" x="0" y="0" width="75" height="74.937" style="fill:none;"/><ellipse cx="20.267" cy="34.696" rx="6.129" ry="5.632" style="fill:#00f5ff;fill-opacity:0;"/><path d="M20.267,29.064c3.383,0 6.129,2.524 6.129,5.632c0,3.108 -2.746,5.632 -6.129,5.632c-3.383,0 -6.129,-2.524 -6.129,-5.632c0,-3.108 2.746,-5.632 6.129,-5.632Zm0,2.083c-2.187,0 -4.046,1.539 -4.046,3.549c0,2.01 1.859,3.549 4.046,3.549c2.187,0 4.046,-1.539 4.046,-3.549c0,-2.01 -1.859,-3.549 -4.046,-3.549Z" style="fill:#00f5ff;"/><path d="M22.535,39.024l2.634,5.361" style="fill:none;stroke:#00f5ff;stroke-width:2.08px;"/><path d="M34.543,37.468l22.346,0" style="fill:none;stroke:#00f5ff;stroke-width:6.67px;"/><path d="M68.377,31.08l0,12.777c0,3.526 -2.863,6.388 -6.388,6.388l-48.978,0c-3.526,0 -6.388,-2.863 -6.388,-6.388l0,-12.777c0,-3.526 2.863,-6.388 6.388,-6.388l48.978,0c3.526,0 6.388,2.863 6.388,6.388Z" style="fill:#00f5ff;fill-opacity:0;"/><path d="M68.377,31.08l0,12.777c0,3.526 -2.863,6.388 -6.388,6.388l-48.978,0c-3.526,0 -6.388,-2.863 -6.388,-6.388l0,-12.777c0,-3.526 2.863,-6.388 6.388,-6.388l48.978,0c3.526,0 6.388,2.863 6.388,6.388Zm-3.333,-0c0,-1.686 -1.369,-3.055 -3.055,-3.055l-48.978,0c-1.686,0 -3.055,1.369 -3.055,3.055l0,12.777c0,1.686 1.369,3.055 3.055,3.055l48.978,0c1.686,0 3.055,-1.369 3.055,-3.055l0,-12.777Z" style="fill:#00f5ff;"/></svg>