<svg xmlns="http://www.w3.org/2000/svg" xml:space="preserve" style="fill-rule:evenodd;clip-rule:evenodd;stroke-linejoin:round;stroke-miterlimit:2" viewBox="0 0 75 75"><path d="M0 0h75v74.937H0z" style="fill:none"/><ellipse cx="37.5" cy="50.3" rx="4.232" ry="3.219" style="fill:#00f5ff"/><ellipse cx="37.5" cy="50.3" rx="4.232" ry="3.219" style="fill:#00f5ff"/><path fill="none" d="M67.293 54.693H7.707a24.4 24.4 0 0 1-1.066-7.121c0-15.083 13.827-27.328 30.859-27.328s30.859 12.245 30.859 27.328c0 2.405-.358 4.799-1.066 7.121" style="fill:#b8ffff;fill-opacity:0"/><path d="M67.293 54.693H7.707a24.4 24.4 0 0 1-1.066-7.121c0-15.083 13.827-27.328 30.859-27.328s30.859 12.245 30.859 27.328c0 2.405-.358 4.799-1.066 7.121m-2.963-3.75a20.5 20.5 0 0 0 .279-3.37c0-13.147-12.264-23.578-27.109-23.578S10.391 34.427 10.391 47.573c0 1.129.094 2.256.279 3.371h53.659Z" style="fill:#00f5ff"/><path fill="none" d="M39.706 24.876v5.26a2.207 2.207 0 0 1-4.412 0v-5.26a2.207 2.207 0 0 1 4.412 0" style="fill:#b8ffff;fill-opacity:0"/><path d="M39.706 24.876v5.26a2.207 2.207 0 0 1-4.412 0v-5.26a2.207 2.207 0 0 1 4.412 0" style="fill:#00f5ff"/><path fill="none" d="m57.536 31.81-2.63 4.555a2.21 2.21 0 0 1-3.014.808 2.21 2.21 0 0 1-.808-3.014l2.63-4.555a2.21 2.21 0 0 1 3.014-.808 2.21 2.21 0 0 1 .808 3.014" style="fill:#b8ffff;fill-opacity:0"/><path d="m57.536 31.81-2.63 4.555a2.21 2.21 0 0 1-3.014.808 2.21 2.21 0 0 1-.808-3.014l2.63-4.555a2.21 2.21 0 0 1 3.014-.808 2.21 2.21 0 0 1 .808 3.014" style="fill:#00f5ff"/><path fill="none" d="m64.093 44.967-5.081 1.361a2.207 2.207 0 0 1-2.702-1.56 2.207 2.207 0 0 1 1.56-2.702l5.081-1.361a2.207 2.207 0 0 1 2.702 1.56 2.207 2.207 0 0 1-1.56 2.702" style="fill:#b8ffff;fill-opacity:0"/><path d="m64.093 44.967-5.081 1.361a2.207 2.207 0 0 1-2.702-1.56 2.207 2.207 0 0 1 1.56-2.702l5.081-1.361a2.207 2.207 0 0 1 2.702 1.56 2.207 2.207 0 0 1-1.56 2.702" style="fill:#00f5ff"/><path fill="none" d="m10.695 41.897 5.081 1.361a2.207 2.207 0 0 1 1.56 2.702 2.207 2.207 0 0 1-2.702 1.56l-5.081-1.361a2.207 2.207 0 0 1-1.56-2.702 2.207 2.207 0 0 1 2.702-1.56" style="fill:#b8ffff;fill-opacity:0"/><path d="m10.695 41.897 5.081 1.361a2.207 2.207 0 0 1 1.56 2.702 2.207 2.207 0 0 1-2.702 1.56l-5.081-1.361a2.207 2.207 0 0 1-1.56-2.702 2.207 2.207 0 0 1 2.702-1.56" style="fill:#00f5ff"/><path fill="none" d="m23.274 29.419 2.63 4.555a2.207 2.207 0 0 1-3.822 2.206l-2.63-4.555a2.207 2.207 0 0 1 3.822-2.206" style="fill:#b8ffff;fill-opacity:0"/><path d="m23.274 29.419 2.63 4.555a2.207 2.207 0 0 1-3.822 2.206l-2.63-4.555a2.207 2.207 0 0 1 3.822-2.206" style="fill:#00f5ff"/><path fill="none" d="m33.209 35.93 4.878 12.435-.845 1.935-1.935-.845-4.878-12.435.845-1.935z" style="fill:#b8ffff;fill-opacity:0"/><path d="m33.209 35.93 4.878 12.435-.845 1.935-1.935-.845-4.878-12.435.845-1.935z" style="fill:#00f5ff"/></svg>