<?xml version="1.0" encoding="UTF-8" standalone="no"?><!DOCTYPE svg PUBLIC "-//W3C//DTD SVG 1.1//EN" "http://www.w3.org/Graphics/SVG/1.1/DTD/svg11.dtd"><svg width="100%" height="100%" viewBox="0 0 75 75" version="1.1" xmlns="http://www.w3.org/2000/svg" xmlns:xlink="http://www.w3.org/1999/xlink" xml:space="preserve" xmlns:serif="http://www.serif.com/" style="fill-rule:evenodd;clip-rule:evenodd;stroke-linejoin:round;stroke-miterlimit:2;"><rect id="Speed-Icon" x="0" y="-0" width="75" height="74.937" style="fill:none;"/><ellipse cx="37.5" cy="50.3" rx="4.232" ry="3.219" style="fill:#00f5ff;"/><ellipse cx="37.5" cy="50.3" rx="4.232" ry="3.219" style="fill:#00f5ff;"/><path d="M67.293,54.693l-59.586,0c-0.708,-2.322 -1.066,-4.716 -1.066,-7.121c0,-15.083 13.827,-27.328 30.859,-27.328c17.032,0 30.859,12.245 30.859,27.328c0,2.405 -0.358,4.799 -1.066,7.121Z" style="fill:#b8ffff;fill-opacity:0;"/><path d="M67.293,54.693l-59.586,0c-0.708,-2.322 -1.066,-4.716 -1.066,-7.121c0,-15.083 13.827,-27.328 30.859,-27.328c17.032,0 30.859,12.245 30.859,27.328c0,2.405 -0.358,4.799 -1.066,7.121Zm-2.963,-3.75c0.186,-1.115 0.279,-2.241 0.279,-3.37c0,-13.147 -12.264,-23.578 -27.109,-23.578c-14.845,0 -27.109,10.432 -27.109,23.578c-0,1.129 0.094,2.256 0.279,3.371l53.659,-0Z" style="fill:#00f5ff;"/><path d="M39.706,24.876l0,5.26c0,1.218 -0.989,2.206 -2.206,2.206c-1.218,0 -2.206,-0.989 -2.206,-2.206l0,-5.26c0,-1.218 0.989,-2.206 2.206,-2.206c1.218,0 2.206,0.989 2.206,2.206Z" style="fill:#b8ffff;fill-opacity:0;"/><path d="M39.706,24.876l0,5.26c0,1.218 -0.989,2.206 -2.206,2.206c-1.218,0 -2.206,-0.989 -2.206,-2.206l0,-5.26c0,-1.218 0.989,-2.206 2.206,-2.206c1.218,0 2.206,0.989 2.206,2.206Z" style="fill:#00f5ff;"/><path d="M57.536,31.81l-2.63,4.555c-0.609,1.055 -1.959,1.416 -3.014,0.808c-1.055,-0.609 -1.416,-1.959 -0.808,-3.014l2.63,-4.555c0.609,-1.055 1.959,-1.416 3.014,-0.808c1.055,0.609 1.416,1.959 0.808,3.014Z" style="fill:#b8ffff;fill-opacity:0;"/><path d="M57.536,31.81l-2.63,4.555c-0.609,1.055 -1.959,1.416 -3.014,0.808c-1.055,-0.609 -1.416,-1.959 -0.808,-3.014l2.63,-4.555c0.609,-1.055 1.959,-1.416 3.014,-0.808c1.055,0.609 1.416,1.959 0.808,3.014Z" style="fill:#00f5ff;"/><path d="M64.093,44.967l-5.081,1.361c-1.176,0.315 -2.387,-0.384 -2.702,-1.56c-0.315,-1.176 0.384,-2.387 1.56,-2.702l5.081,-1.361c1.176,-0.315 2.387,0.384 2.702,1.56c0.315,1.176 -0.384,2.387 -1.56,2.702Z" style="fill:#b8ffff;fill-opacity:0;"/><path d="M64.093,44.967l-5.081,1.361c-1.176,0.315 -2.387,-0.384 -2.702,-1.56c-0.315,-1.176 0.384,-2.387 1.56,-2.702l5.081,-1.361c1.176,-0.315 2.387,0.384 2.702,1.56c0.315,1.176 -0.384,2.387 -1.56,2.702Z" style="fill:#00f5ff;"/><path d="M10.695,41.897l5.081,1.361c1.176,0.315 1.875,1.526 1.56,2.702c-0.315,1.176 -1.526,1.875 -2.702,1.56l-5.081,-1.361c-1.176,-0.315 -1.875,-1.526 -1.56,-2.702c0.315,-1.176 1.526,-1.875 2.702,-1.56Z" style="fill:#b8ffff;fill-opacity:0;"/><path d="M10.695,41.897l5.081,1.361c1.176,0.315 1.875,1.526 1.56,2.702c-0.315,1.176 -1.526,1.875 -2.702,1.56l-5.081,-1.361c-1.176,-0.315 -1.875,-1.526 -1.56,-2.702c0.315,-1.176 1.526,-1.875 2.702,-1.56Z" style="fill:#00f5ff;"/><path d="M23.274,29.419l2.63,4.555c0.609,1.055 0.247,2.405 -0.808,3.014c-1.055,0.609 -2.405,0.247 -3.014,-0.808l-2.63,-4.555c-0.609,-1.055 -0.247,-2.405 0.808,-3.014c1.055,-0.609 2.405,-0.247 3.014,0.808Z" style="fill:#b8ffff;fill-opacity:0;"/><path d="M23.274,29.419l2.63,4.555c0.609,1.055 0.247,2.405 -0.808,3.014c-1.055,0.609 -2.405,0.247 -3.014,-0.808l-2.63,-4.555c-0.609,-1.055 -0.247,-2.405 0.808,-3.014c1.055,-0.609 2.405,-0.247 3.014,0.808Z" style="fill:#00f5ff;"/><path d="M33.209,35.93l4.878,12.435l-0.845,1.935l-1.935,-0.845l-4.878,-12.435l0.845,-1.935l1.935,0.845Z" style="fill:#b8ffff;fill-opacity:0;"/><path d="M33.209,35.93l4.878,12.435l-0.845,1.935l-1.935,-0.845l-4.878,-12.435l0.845,-1.935l1.935,0.845Z" style="fill:#00f5ff;"/></svg>