<?xml version="1.0" encoding="UTF-8" standalone="no"?><!DOCTYPE svg PUBLIC "-//W3C//DTD SVG 1.1//EN" "http://www.w3.org/Graphics/SVG/1.1/DTD/svg11.dtd"><svg width="100%" height="100%" viewBox="0 0 75 75" version="1.1" xmlns="http://www.w3.org/2000/svg" xmlns:xlink="http://www.w3.org/1999/xlink" xml:space="preserve" xmlns:serif="http://www.serif.com/" style="fill-rule:evenodd;clip-rule:evenodd;stroke-linecap:round;stroke-linejoin:round;stroke-miterlimit:1.5;"><rect id="VRID-Launch-icon" x="0" y="-0" width="75" height="74.937" style="fill:none;"/><path d="M59.92,7.946c1.902,4.966 7.922,27.269 -18.339,44.294" style="fill:#b8ffff;fill-opacity:0;stroke:#00f5ff;stroke-width:3.75px;"/><path d="M22.846,38.159c1.42,1.971 7.818,11.38 18.736,14.081" style="fill:#b8ffff;fill-opacity:0;stroke:#00f5ff;stroke-width:3.75px;"/><path d="M29.006,23.223c-0.265,-0.992 -0.793,-7.805 -8.173,-4.03c-4.809,2.459 -13.151,12.542 -15.034,20.176c0.936,-1.104 4.515,-6.082 9.215,-5.415c3.903,0.554 4.208,3.976 7.569,0.963" style="fill:#b8ffff;fill-opacity:0;stroke:#00f5ff;stroke-width:3.75px;"/><path d="M54.864,41.158c1.025,0.05 7.797,-0.869 5.661,7.141c-1.392,5.219 -9.491,15.497 -16.557,18.946c0.882,-1.148 4.995,-5.694 3.353,-10.149c-1.363,-3.699 -4.773,-3.276 -2.535,-7.197" style="fill:#b8ffff;fill-opacity:0;stroke:#00f5ff;stroke-width:3.75px;"/><path d="M22.846,38.159c0.657,-5.277 5.832,-27.791 37.014,-30.467" style="fill:#b8ffff;fill-opacity:0;stroke:#00f5ff;stroke-width:3.75px;"/><ellipse cx="49.425" cy="21.745" rx="8.073" ry="8.348" style="fill:#b8ffff;fill-opacity:0;"/><path d="M49.425,13.397c4.455,0 8.073,3.741 8.073,8.348c0,4.607 -3.617,8.348 -8.073,8.348c-4.455,0 -8.073,-3.741 -8.073,-8.348c0,-4.607 3.617,-8.348 8.073,-8.348Zm0,3.333c-2.647,0 -4.739,2.277 -4.739,5.015c0,2.738 2.092,5.015 4.739,5.015c2.647,0 4.739,-2.277 4.739,-5.015c0,-2.738 -2.092,-5.015 -4.739,-5.015Z" style="fill:#00f5ff;"/><path d="M26.957,44.086c-2.253,2.801 -14.077,-1.733 -10.262,2.38c4.149,4.473 14.804,12.718 16.766,13.749c2.673,1.405 -3.07,-5.801 -0.123,-10.878" style="fill:#b8ffff;fill-opacity:0;stroke:#00f5ff;stroke-width:3.33px;"/></svg>