<?xml version="1.0" encoding="UTF-8" standalone="no"?><!DOCTYPE svg PUBLIC "-//W3C//DTD SVG 1.1//EN" "http://www.w3.org/Graphics/SVG/1.1/DTD/svg11.dtd"><svg width="100%" height="100%" viewBox="0 0 75 75" version="1.1" xmlns="http://www.w3.org/2000/svg" xmlns:xlink="http://www.w3.org/1999/xlink" xml:space="preserve" xmlns:serif="http://www.serif.com/" style="fill-rule:evenodd;clip-rule:evenodd;stroke-linecap:round;stroke-linejoin:round;stroke-miterlimit:1.5;"><rect id="VRID-Prime-Icon" x="0" y="-0" width="75" height="74.937" style="fill:none;"/><path d="M12.178,50.541l0,-24.541" style="fill:none;stroke:#00f5ff;stroke-width:3.33px;"/><path d="M67.545,51.466l0,5.357c0,1.478 -1.2,2.678 -2.678,2.678l-54.733,0c-1.478,0 -2.678,-1.2 -2.678,-2.678l0,-5.357c0,-1.478 1.2,-2.678 2.678,-2.678l54.733,0c1.478,0 2.678,1.2 2.678,2.678Z" style="fill:#b8ffff;fill-opacity:0;"/><path d="M67.545,51.466l0,5.357c0,1.478 -1.2,2.678 -2.678,2.678l-54.733,0c-1.478,0 -2.678,-1.2 -2.678,-2.678l0,-5.357c0,-1.478 1.2,-2.678 2.678,-2.678l54.733,0c1.478,0 2.678,1.2 2.678,2.678Zm-56.756,0.655l-0,4.047l53.423,0l0,-4.047l-53.423,0Z" style="fill:#00f5ff;"/><path d="M62.36,50.378l0,-24.378" style="fill:none;stroke:#00f5ff;stroke-width:3.33px;"/><path d="M12.178,26c8.264,6.141 14.4,11.268 14.4,11.268l11.085,-21.832l9.891,21.372l15.268,-10.808" style="fill:#b8ffff;fill-opacity:0;stroke:#00f5ff;stroke-width:3.33px;"/></svg>