<?xml version="1.0" encoding="UTF-8" standalone="no"?><!DOCTYPE svg PUBLIC "-//W3C//DTD SVG 1.1//EN" "http://www.w3.org/Graphics/SVG/1.1/DTD/svg11.dtd"><svg width="100%" height="100%" viewBox="0 0 75 75" version="1.1" xmlns="http://www.w3.org/2000/svg" xmlns:xlink="http://www.w3.org/1999/xlink" xml:space="preserve" xmlns:serif="http://www.serif.com/" style="fill-rule:evenodd;clip-rule:evenodd;stroke-linecap:round;stroke-linejoin:round;stroke-miterlimit:1.5;"><rect id="VRID-Edit-icon" x="0" y="-0" width="75" height="74.937" style="fill:none;"/><path d="M69.424,29.618l0,23.466c0,6.476 -5.257,11.733 -11.733,11.733l-40.382,0c-6.476,0 -11.733,-5.257 -11.733,-11.733l-0,-23.466c0,-6.476 5.257,-11.733 11.733,-11.733l40.382,0c6.476,0 11.733,5.257 11.733,11.733Z" style="fill:#00f5ff;fill-opacity:0;"/><path d="M69.424,29.618l0,23.466c0,6.476 -5.257,11.733 -11.733,11.733l-40.382,0c-6.476,0 -11.733,-5.257 -11.733,-11.733l-0,-23.466c0,-6.476 5.257,-11.733 11.733,-11.733l40.382,0c6.476,0 11.733,5.257 11.733,11.733Zm-3.333,-0c-0,-4.636 -3.764,-8.4 -8.4,-8.4l-40.382,0c-4.636,0 -8.4,3.764 -8.4,8.4l0,23.466c0,4.636 3.764,8.4 8.4,8.4l40.382,0c4.636,0 8.4,-3.764 8.4,-8.4l-0,-23.466Z" style="fill:#00f5ff;"/><path d="M11.632,53.745l10.582,-12.394l10.338,12.475l14.733,-5.861l11.966,5.942" style="fill:#00f5ff;fill-opacity:0;stroke:#00f5ff;stroke-width:2.5px;"/><path d="M50.327,10.119c3.09,0 5.595,2.505 5.595,5.595c-0,8.362 -0,23.149 -0,23.149l-11.447,0l0,-23.04c0,-3.15 2.554,-5.704 5.704,-5.704c0.049,-0 0.098,-0 0.147,-0Z" style="fill:#00f5ff;fill-opacity:0;"/><path d="M50.327,10.119c3.09,0 5.595,2.505 5.595,5.595l-0,23.149l-11.447,0l0,-23.04c0,-3.15 2.554,-5.704 5.704,-5.704l0.147,-0Zm-0,2.5l-0.148,0c-1.77,0 -3.204,1.435 -3.204,3.204l0,20.54l6.447,0l0,-20.649c0,-1.709 -1.386,-3.095 -3.095,-3.095Z" style="fill:#00f5ff;"/><path d="M45.689,38.543l4.371,7.53l4.515,-7.584" style="fill:#00f5ff;fill-opacity:0;stroke:#00f5ff;stroke-width:2.5px;"/><circle cx="21.078" cy="30.928" r="6.437" style="fill:#00f5ff;fill-opacity:0;"/><path d="M21.078,24.491c3.553,0 6.437,2.884 6.437,6.437c0,3.553 -2.884,6.437 -6.437,6.437c-3.553,0 -6.437,-2.884 -6.437,-6.437c0,-3.553 2.884,-6.437 6.437,-6.437Zm0,2.5c-2.173,0 -3.937,1.764 -3.937,3.937c0,2.173 1.764,3.937 3.937,3.937c2.173,0 3.937,-1.764 3.937,-3.937c0,-2.173 -1.764,-3.937 -3.937,-3.937Z" style="fill:#00f5ff;"/></svg>