<svg xmlns="http://www.w3.org/2000/svg" xml:space="preserve" style="fill-rule:evenodd;clip-rule:evenodd;stroke-linecap:round;stroke-linejoin:round;stroke-miterlimit:1.5" viewBox="0 0 75 75"><path d="M0 0h75v74.937H0z" style="fill:none"/><path fill="none" d="M69.424 29.618v23.466c0 6.476-5.257 11.733-11.733 11.733H17.309c-6.476 0-11.733-5.257-11.733-11.733V29.618c0-6.476 5.257-11.733 11.733-11.733h40.382c6.476 0 11.733 5.257 11.733 11.733" style="fill:#00f5ff;fill-opacity:0"/><path d="M69.424 29.618v23.466c0 6.476-5.257 11.733-11.733 11.733H17.309c-6.476 0-11.733-5.257-11.733-11.733V29.618c0-6.476 5.257-11.733 11.733-11.733h40.382c6.476 0 11.733 5.257 11.733 11.733m-3.333 0c0-4.636-3.764-8.4-8.4-8.4H17.309c-4.636 0-8.4 3.764-8.4 8.4v23.466c0 4.636 3.764 8.4 8.4 8.4h40.382c4.636 0 8.4-3.764 8.4-8.4z" style="fill:#00f5ff"/><path fill="none" d="m11.632 53.745 10.582-12.394 10.338 12.475 14.733-5.861 11.966 5.942" style="fill:#00f5ff;fill-opacity:0;stroke:#00f5ff;stroke-width:2.5px"/><path fill="none" d="M50.327 10.119a5.595 5.595 0 0 1 5.595 5.595v23.149H44.475v-23.04a5.704 5.704 0 0 1 5.704-5.704h.147Z" style="fill:#00f5ff;fill-opacity:0"/><path d="M50.327 10.119a5.595 5.595 0 0 1 5.595 5.595v23.149H44.475v-23.04a5.704 5.704 0 0 1 5.704-5.704h.147Zm0 2.5h-.148a3.204 3.204 0 0 0-3.204 3.204v20.54h6.447V15.714a3.095 3.095 0 0 0-3.095-3.095" style="fill:#00f5ff"/><path fill="none" d="m45.689 38.543 4.371 7.53 4.515-7.584" style="fill:#00f5ff;fill-opacity:0;stroke:#00f5ff;stroke-width:2.5px"/><circle cx="21.078" cy="30.928" r="6.437" fill="none" style="fill:#00f5ff;fill-opacity:0"/><path d="M21.078 24.491a6.44 6.44 0 0 1 6.437 6.437 6.44 6.44 0 0 1-6.437 6.437 6.44 6.44 0 0 1-6.437-6.437 6.44 6.44 0 0 1 6.437-6.437m0 2.5a3.94 3.94 0 0 0-3.937 3.937 3.94 3.94 0 0 0 3.937 3.937 3.94 3.94 0 0 0 3.937-3.937 3.94 3.94 0 0 0-3.937-3.937" style="fill:#00f5ff"/></svg>