<svg xmlns="http://www.w3.org/2000/svg" xml:space="preserve" style="fill-rule:evenodd;clip-rule:evenodd;stroke-linecap:round;stroke-linejoin:round;stroke-miterlimit:1.5" viewBox="0 0 75 75"><path d="M0 0h75v74.937H0z" style="fill:none"/><path fill="none" d="M52.241 10.4a6.83 6.83 0 0 1 6.828 6.828v47.309H15.931V17.529A7.13 7.13 0 0 1 23.06 10.4z" style="fill:#b8ffff;fill-opacity:0"/><path d="M52.241 10.4a6.83 6.83 0 0 1 6.828 6.828v47.309H15.931V17.529A7.13 7.13 0 0 1 23.06 10.4zm0 3.333H23.06a3.795 3.795 0 0 0-3.796 3.796v43.675h36.472V17.228a3.495 3.495 0 0 0-3.495-3.495" style="fill:#00f5ff"/><path fill="none" d="m7.023 63.017-.001.001h60.056" style="fill:#b8ffff;fill-opacity:0;stroke:#00f5ff;stroke-width:3.33px"/><path fill="none" d="M33.343 22.621v5.356a2.68 2.68 0 0 1-2.678 2.678h-5.607a2.68 2.68 0 0 1-2.678-2.678v-5.356a2.68 2.68 0 0 1 2.678-2.678h5.607a2.68 2.68 0 0 1 2.678 2.678" style="fill:#b8ffff;fill-opacity:0"/><path d="M33.343 22.621v5.356a2.68 2.68 0 0 1-2.678 2.678h-5.607a2.68 2.68 0 0 1-2.678-2.678v-5.356a2.68 2.68 0 0 1 2.678-2.678h5.607a2.68 2.68 0 0 1 2.678 2.678m-7.63.655v4.046h4.297l.001-4.046z" style="fill:#00f5ff"/><path fill="none" d="M51.754 22.621v5.356a2.68 2.68 0 0 1-2.678 2.678h-5.607a2.68 2.68 0 0 1-2.678-2.678v-5.356a2.68 2.68 0 0 1 2.678-2.678h5.607a2.68 2.68 0 0 1 2.678 2.678" style="fill:#b8ffff;fill-opacity:0"/><path d="M51.754 22.621v5.356a2.68 2.68 0 0 1-2.678 2.678h-5.607a2.68 2.68 0 0 1-2.678-2.678v-5.356a2.68 2.68 0 0 1 2.678-2.678h5.607a2.68 2.68 0 0 1 2.678 2.678m-7.63.655v4.046h4.297l.001-4.046z" style="fill:#00f5ff"/><path fill="none" d="M33.776 37.267v5.356a2.68 2.68 0 0 1-2.678 2.678h-5.607a2.68 2.68 0 0 1-2.678-2.678v-5.356a2.68 2.68 0 0 1 2.678-2.678h5.607a2.68 2.68 0 0 1 2.678 2.678" style="fill:#b8ffff;fill-opacity:0"/><path d="M33.776 37.267v5.356a2.68 2.68 0 0 1-2.678 2.678h-5.607a2.68 2.68 0 0 1-2.678-2.678v-5.356a2.68 2.68 0 0 1 2.678-2.678h5.607a2.68 2.68 0 0 1 2.678 2.678m-7.63.655v4.046h4.297v-4.046z" style="fill:#00f5ff"/><path fill="none" d="M52.188 37.267v5.356a2.68 2.68 0 0 1-2.678 2.678h-5.607a2.68 2.68 0 0 1-2.678-2.678v-5.356a2.68 2.68 0 0 1 2.678-2.678h5.607a2.68 2.68 0 0 1 2.678 2.678" style="fill:#b8ffff;fill-opacity:0"/><path d="M52.188 37.267v5.356a2.68 2.68 0 0 1-2.678 2.678h-5.607a2.68 2.68 0 0 1-2.678-2.678v-5.356a2.68 2.68 0 0 1 2.678-2.678h5.607a2.68 2.68 0 0 1 2.678 2.678m-7.63.655v4.046h4.297v-4.046z" style="fill:#00f5ff"/></svg>