<?xml version="1.0" encoding="UTF-8" standalone="no"?><!DOCTYPE svg PUBLIC "-//W3C//DTD SVG 1.1//EN" "http://www.w3.org/Graphics/SVG/1.1/DTD/svg11.dtd"><svg width="100%" height="100%" viewBox="0 0 75 75" version="1.1" xmlns="http://www.w3.org/2000/svg" xmlns:xlink="http://www.w3.org/1999/xlink" xml:space="preserve" xmlns:serif="http://www.serif.com/" style="fill-rule:evenodd;clip-rule:evenodd;stroke-linecap:round;stroke-linejoin:round;stroke-miterlimit:1.5;"><rect id="VRID-Core-Icon" x="0" y="0" width="75" height="74.937" style="fill:none;"/><path d="M52.241,10.4c3.771,0 6.828,3.057 6.828,6.828c0,14.553 0,47.309 0,47.309l-43.138,0l0,-47.008c-0,-1.891 0.751,-3.704 2.088,-5.041c1.337,-1.337 3.15,-2.088 5.041,-2.088c8.096,0 21.212,0 29.181,0Z" style="fill:#b8ffff;fill-opacity:0;"/><path d="M52.241,10.4c3.771,0 6.828,3.057 6.828,6.828l0,47.309l-43.138,0l0,-47.008c-0,-1.891 0.751,-3.704 2.088,-5.041c1.337,-1.337 3.15,-2.088 5.041,-2.088l29.181,0Zm-0,3.333l-29.181,0c-1.007,0 -1.972,0.4 -2.684,1.112c-0.712,0.712 -1.112,1.677 -1.112,2.684l0,43.675l36.472,0l-0,-43.976c-0,-1.93 -1.565,-3.495 -3.495,-3.495Z" style="fill:#00f5ff;"/><path d="M7.023,63.017l-0.001,0.001l60.056,0" style="fill:#b8ffff;fill-opacity:0;stroke:#00f5ff;stroke-width:3.33px;"/><path d="M33.343,22.621l0,5.356c0,1.478 -1.2,2.678 -2.678,2.678l-5.607,0c-1.478,0 -2.678,-1.2 -2.678,-2.678l0,-5.356c0,-1.478 1.2,-2.678 2.678,-2.678l5.607,0c1.478,0 2.678,1.2 2.678,2.678Z" style="fill:#b8ffff;fill-opacity:0;"/><path d="M33.343,22.621l0,5.356c0,1.478 -1.2,2.678 -2.678,2.678l-5.607,0c-1.478,0 -2.678,-1.2 -2.678,-2.678l0,-5.356c0,-1.478 1.2,-2.678 2.678,-2.678l5.607,0c1.478,0 2.678,1.2 2.678,2.678Zm-7.63,0.655l0,4.046l4.297,0l0.001,-4.046l-4.298,0Z" style="fill:#00f5ff;"/><path d="M51.754,22.621l0,5.356c0,1.478 -1.2,2.678 -2.678,2.678l-5.607,0c-1.478,0 -2.678,-1.2 -2.678,-2.678l0,-5.356c0,-1.478 1.2,-2.678 2.678,-2.678l5.607,0c1.478,0 2.678,1.2 2.678,2.678Z" style="fill:#b8ffff;fill-opacity:0;"/><path d="M51.754,22.621l0,5.356c0,1.478 -1.2,2.678 -2.678,2.678l-5.607,0c-1.478,0 -2.678,-1.2 -2.678,-2.678l0,-5.356c0,-1.478 1.2,-2.678 2.678,-2.678l5.607,0c1.478,0 2.678,1.2 2.678,2.678Zm-7.63,0.655l0,4.046l4.297,0l0.001,-4.046l-4.298,0Z" style="fill:#00f5ff;"/><path d="M33.776,37.267l0,5.356c0,1.478 -1.2,2.678 -2.678,2.678l-5.607,0c-1.478,0 -2.678,-1.2 -2.678,-2.678l0,-5.356c0,-1.478 1.2,-2.678 2.678,-2.678l5.607,0c1.478,0 2.678,1.2 2.678,2.678Z" style="fill:#b8ffff;fill-opacity:0;"/><path d="M33.776,37.267l0,5.356c0,1.478 -1.2,2.678 -2.678,2.678l-5.607,0c-1.478,0 -2.678,-1.2 -2.678,-2.678l0,-5.356c0,-1.478 1.2,-2.678 2.678,-2.678l5.607,0c1.478,0 2.678,1.2 2.678,2.678Zm-7.63,0.655l0,4.046l4.297,0l0,-4.046l-4.297,0Z" style="fill:#00f5ff;"/><path d="M52.188,37.267l0,5.356c0,1.478 -1.2,2.678 -2.678,2.678l-5.607,0c-1.478,0 -2.678,-1.2 -2.678,-2.678l0,-5.356c0,-1.478 1.2,-2.678 2.678,-2.678l5.607,0c1.478,0 2.678,1.2 2.678,2.678Z" style="fill:#b8ffff;fill-opacity:0;"/><path d="M52.188,37.267l0,5.356c0,1.478 -1.2,2.678 -2.678,2.678l-5.607,0c-1.478,0 -2.678,-1.2 -2.678,-2.678l0,-5.356c0,-1.478 1.2,-2.678 2.678,-2.678l5.607,0c1.478,0 2.678,1.2 2.678,2.678Zm-7.63,0.655l0,4.046l4.297,0l0,-4.046l-4.297,0Z" style="fill:#00f5ff;"/></svg>