<svg xmlns="http://www.w3.org/2000/svg" xml:space="preserve" style="fill-rule:evenodd;clip-rule:evenodd;stroke-linecap:round;stroke-linejoin:round;stroke-miterlimit:1.5" viewBox="0 0 75 75"><path d="M0 0h75v74.9H0z" style="fill:none"/><path d="M12.2 50.5V26" style="fill:none;stroke:#00f5ff;stroke-width:3.33px"/><path fill="none" d="M67.5 51.5v5.3c0 1.5-1.2 2.7-2.6 2.7H10a3 3 0 0 1-2.6-2.7v-5.3c0-1.5 1.2-2.7 2.6-2.7H65c1.4 0 2.6 1.2 2.6 2.7" style="fill:#b8ffff;fill-opacity:0"/><path d="M67.5 51.5v5.3c0 1.5-1.2 2.7-2.6 2.7H10a3 3 0 0 1-2.6-2.7v-5.3c0-1.5 1.2-2.7 2.6-2.7H65c1.4 0 2.6 1.2 2.6 2.7m-56.7.6v4h53.4v-4z" style="fill:#00f5ff"/><path d="M62.4 50.4V26" style="fill:none;stroke:#00f5ff;stroke-width:3.33px"/><path fill="none" d="M12.2 26c8.2 6.1 14.4 11.3 14.4 11.3l11-21.9 10 21.4L62.8 26" style="fill:#b8ffff;fill-opacity:0;stroke:#00f5ff;stroke-width:3.33px"/></svg>