<svg xmlns="http://www.w3.org/2000/svg" xml:space="preserve" style="fill-rule:evenodd;clip-rule:evenodd;stroke-linejoin:round;stroke-miterlimit:2" viewBox="0 0 75 75"><path d="M0 0h75v74.937H0z" style="fill:none"/><path fill="none" d="M42.476 38.362 22.982 63.141a3.544 3.544 0 0 1-4.978.594l-2.771-2.18a3.63 3.63 0 0 1-.608-5.096l19.442-24.713z" style="fill:#00f5ff;fill-opacity:0"/><path d="M42.476 38.362 22.982 63.141a3.544 3.544 0 0 1-4.978.594l-2.771-2.18a3.63 3.63 0 0 1-.608-5.096l19.442-24.713zm-4.681.559-3.17-2.494L17.244 58.52a.295.295 0 0 0 .05.415l2.771 2.18a.21.21 0 0 0 .297-.036L37.795 38.92Z" style="fill:#00f5ff"/><path fill="none" d="M46.481 10.453c2.565-.458-4.358 13.626-4.358 13.626l6.568 5.633s11.796-11.273 12.186-9.087c1.49 8.334-3.152 18.317-11.486 19.807s-16.31-4.067-17.8-12.401 6.556-16.087 14.89-17.577Z" style="fill:#00f5ff;fill-opacity:0"/><path d="M46.481 10.453c2.565-.458-4.358 13.626-4.358 13.626l6.568 5.633s11.796-11.273 12.186-9.087c1.49 8.334-3.152 18.317-11.486 19.807s-16.31-4.067-17.8-12.401 6.556-16.087 14.89-17.577Zm11.203 15.653c-3.141 2.584-6.691 6.015-6.691 6.015a3.33 3.33 0 0 1-4.473.12l-6.568-5.633a3.334 3.334 0 0 1-.821-4.001l2.815-6.986a16.8 16.8 0 0 0-4.123 3.29c-2.164 2.389-3.513 5.386-2.951 8.531 1.166 6.523 7.409 10.872 13.932 9.706 5.041-.901 8.186-5.823 8.88-11.043Z" style="fill:#00f5ff"/></svg>