<?xml version="1.0" encoding="UTF-8" standalone="no"?><!DOCTYPE svg PUBLIC "-//W3C//DTD SVG 1.1//EN" "http://www.w3.org/Graphics/SVG/1.1/DTD/svg11.dtd"><svg width="100%" height="100%" viewBox="0 0 75 75" version="1.1" xmlns="http://www.w3.org/2000/svg" xmlns:xlink="http://www.w3.org/1999/xlink" xml:space="preserve" xmlns:serif="http://www.serif.com/" style="fill-rule:evenodd;clip-rule:evenodd;stroke-linejoin:round;stroke-miterlimit:2;"><rect id="VRID-addon-icon" x="0" y="0" width="75" height="74.937" style="fill:none;"/><path d="M42.476,38.362c-0,0 -13.985,17.777 -19.494,24.779c-1.211,1.539 -3.439,1.805 -4.978,0.594c-0.89,-0.7 -1.876,-1.476 -2.771,-2.18c-1.575,-1.239 -1.848,-3.521 -0.608,-5.096c5.544,-7.047 19.442,-24.713 19.442,-24.713l8.41,6.616Z" style="fill:#00f5ff;fill-opacity:0;"/><path d="M42.476,38.362l-19.494,24.779c-1.211,1.539 -3.439,1.805 -4.978,0.594l-2.771,-2.18c-1.575,-1.239 -1.848,-3.521 -0.608,-5.096l19.442,-24.713l8.41,6.616Zm-4.681,0.559l-3.17,-2.494l-17.381,22.093c-0.101,0.128 -0.079,0.314 0.05,0.415l2.771,2.18c0.092,0.072 0.225,0.056 0.297,-0.036l17.433,-22.159Z" style="fill:#00f5ff;"/><path d="M46.481,10.453c2.565,-0.458 -4.358,13.626 -4.358,13.626l6.568,5.633c0,0 11.796,-11.273 12.186,-9.087c1.49,8.334 -3.152,18.317 -11.486,19.807c-8.334,1.49 -16.31,-4.067 -17.8,-12.401c-1.49,-8.334 6.556,-16.087 14.89,-17.577Z" style="fill:#00f5ff;fill-opacity:0;"/><path d="M46.481,10.453c2.565,-0.458 -4.358,13.626 -4.358,13.626l6.568,5.633c0,0 11.796,-11.273 12.186,-9.087c1.49,8.334 -3.152,18.317 -11.486,19.807c-8.334,1.49 -16.31,-4.067 -17.8,-12.401c-1.49,-8.334 6.556,-16.087 14.89,-17.577Zm11.203,15.653c-3.141,2.584 -6.691,6.015 -6.691,6.015c-1.239,1.184 -3.173,1.236 -4.473,0.12l-6.568,-5.633c-1.154,-0.99 -1.492,-2.636 -0.821,-4.001l2.815,-6.986c-1.544,0.88 -2.955,2.001 -4.123,3.29c-2.164,2.389 -3.513,5.386 -2.951,8.531c1.166,6.523 7.409,10.872 13.932,9.706c5.041,-0.901 8.186,-5.823 8.88,-11.043Z" style="fill:#00f5ff;"/></svg>