<svg xmlns="http://www.w3.org/2000/svg" xml:space="preserve" style="fill-rule:evenodd;clip-rule:evenodd;stroke-linecap:round;stroke-linejoin:round;stroke-miterlimit:1.5" viewBox="0 0 75 75"><path d="M0 0h75v74.94H0z" style="fill:none"/><path fill="none" d="M59.92 7.95c1.9 4.96 7.92 27.26-18.34 44.29M22.85 38.16c1.42 1.97 7.81 11.38 18.73 14.08M29 23.22c-.26-.99-.79-7.8-8.17-4.03-4.8 2.46-13.15 12.54-15.03 20.18.93-1.1 4.51-6.08 9.21-5.42 3.9.56 4.21 3.98 7.57.97" style="fill:#b8ffff;fill-opacity:0;stroke:#00f5ff;stroke-width:3.75px"/><path fill="none" d="M54.86 41.16c1.03.05 7.8-.87 5.66 7.14-1.39 5.22-9.49 15.5-16.55 18.95.88-1.15 5-5.7 3.35-10.15-1.36-3.7-4.77-3.28-2.53-7.2M22.85 38.16c.65-5.28 5.83-27.8 37.01-30.47" style="fill:#b8ffff;fill-opacity:0;stroke:#00f5ff;stroke-width:3.75px"/><ellipse cx="49.42" cy="21.75" fill="none" rx="8.07" ry="8.35" style="fill:#b8ffff;fill-opacity:0"/><path d="M49.43 13.4c4.45 0 8.07 3.74 8.07 8.35s-3.62 8.34-8.08 8.34-8.07-3.74-8.07-8.34c0-4.61 3.62-8.35 8.07-8.35m0 3.33c-2.65 0-4.74 2.28-4.74 5.01 0 2.74 2.09 5.02 4.74 5.02 2.64 0 4.73-2.28 4.73-5.01 0-2.74-2.09-5.02-4.74-5.02" style="fill:#00f5ff"/><path fill="none" d="M26.96 44.09c-2.26 2.8-14.08-1.74-10.26 2.38 4.14 4.47 14.8 12.71 16.76 13.75 2.67 1.4-3.07-5.8-.12-10.88" style="fill:#b8ffff;fill-opacity:0;stroke:#00f5ff;stroke-width:3.33px"/></svg>