<svg xmlns="http://www.w3.org/2000/svg" xml:space="preserve" style="fill-rule:evenodd;clip-rule:evenodd;stroke-linecap:round;stroke-linejoin:round;stroke-miterlimit:1.5" viewBox="0 0 75 75"><path d="M0 0h75v74.9H0z" style="fill:none"/><path fill="none" d="m25 59.6 1.8-3a22.3 22.3 0 1 0-7.3-6.8l-3 2a25.8 25.8 0 1 1 8.6 7.8" style="fill:#b8ffff;fill-opacity:0"/><path d="m25 59.6 1.8-3a22.3 22.3 0 1 0-7.3-6.8l-3 2a25.8 25.8 0 1 1 8.6 7.8" style="fill:#00f5ff"/><path fill="none" d="M18.1 50.6a68 68 0 0 1-8.2 10.6s10.5-2.1 16-3.4" style="fill:#b8ffff;fill-opacity:0;stroke:#00f5ff;stroke-width:3.33px"/><path d="M30.4 22.8s3.3 6.3 3.3 8.6c0 2 2.2 5 2.7 5.7l.2.4c.7 1.3 3.5 6.8 6 6.3C45.2 43.3 49 49 49 49l-4.7 3.6a3.2 3.2 0 0 1-4.6-.7L25 31a3.6 3.6 0 0 1 .9-5.1z" style="fill:#00f5ff"/><path d="M30.4 22.8s3.3 6.3 3.3 8.6c0 2 2.2 5 2.7 5.7l.2.4c.7 1.3 3.5 6.8 6 6.3C45.2 43.3 49 49 49 49l-4.7 3.6a3.2 3.2 0 0 1-4.6-.7L25 31a3.6 3.6 0 0 1 .9-5.1zm9.8 24 2.3 3 1.8-1.4-.5-.5-1.1-.8h-.8l-1.2-.2zm-9.5-13.4-.3-2q-.1-1.1-1-2.8l-.3-.9-1.4 1-.2.2.1.2z" style="fill:#00f5ff"/><path d="M31 22.2a2.5 2.5 0 0 1 3.6.6l1.8 2.7a2.6 2.6 0 0 1-1.5 4l-2.7.7-4.3-5.7z" style="fill:#00f5ff"/><path d="M31 22.2a2.5 2.5 0 0 1 3.6.6l1.8 2.7a2.6 2.6 0 0 1-1.5 4l-2.7.7-4.3-5.7zM49.8 48.4a2.5 2.5 0 0 0 .4-3.6L47.8 42a2.6 2.6 0 0 0-4.3.5l-1.3 2.4 4.6 5.9z" style="fill:#00f5ff"/><path d="m49.8 48.4-3 2.4-4.6-6 1.3-2.3a2.6 2.6 0 0 1 4.3-.5l2.4 2.8a2.5 2.5 0 0 1-.4 3.6" style="fill:#00f5ff"/></svg>