<?xml version="1.0" encoding="UTF-8" standalone="no"?><!DOCTYPE svg PUBLIC "-//W3C//DTD SVG 1.1//EN" "http://www.w3.org/Graphics/SVG/1.1/DTD/svg11.dtd"><svg width="100%" height="100%" viewBox="0 0 75 75" version="1.1" xmlns="http://www.w3.org/2000/svg" xmlns:xlink="http://www.w3.org/1999/xlink" xml:space="preserve" xmlns:serif="http://www.serif.com/" style="fill-rule:evenodd;clip-rule:evenodd;stroke-linecap:round;stroke-linejoin:round;stroke-miterlimit:1.5;"><rect id="Wa-Icon" x="0" y="-0" width="75" height="74.937" style="fill:none;"/><path d="M25.062,59.626l1.75,-3.031c5.115,2.953 11.193,3.753 16.898,2.225c11.871,-3.181 18.927,-15.402 15.746,-27.273c-3.181,-11.871 -15.402,-18.927 -27.273,-15.746c-11.871,3.181 -18.927,15.402 -15.746,27.273c0.638,2.382 1.667,4.641 3.046,6.685l-2.902,1.957c-1.595,-2.366 -2.786,-4.98 -3.525,-7.736c-3.681,-13.738 4.484,-27.879 18.221,-31.56c13.738,-3.681 27.879,4.484 31.56,18.221c3.681,13.738 -4.484,27.879 -18.221,31.56c-6.601,1.769 -13.635,0.843 -19.554,-2.574Z" style="fill:#b8ffff;fill-opacity:0;"/><path d="M25.062,59.626l1.75,-3.031c5.115,2.953 11.193,3.753 16.898,2.225c11.871,-3.181 18.927,-15.402 15.746,-27.273c-3.181,-11.871 -15.402,-18.927 -27.273,-15.746c-11.871,3.181 -18.927,15.402 -15.746,27.273c0.638,2.382 1.667,4.641 3.046,6.685l-2.902,1.957c-1.595,-2.366 -2.786,-4.98 -3.525,-7.736c-3.681,-13.738 4.484,-27.879 18.221,-31.56c13.738,-3.681 27.879,4.484 31.56,18.221c3.681,13.738 -4.484,27.879 -18.221,31.56c-6.601,1.769 -13.635,0.843 -19.554,-2.574Z" style="fill:#00f5ff;"/><path d="M18.1,50.638c-2.516,4.548 -8.195,10.561 -8.195,10.561c0,0 10.535,-2.136 15.924,-3.408" style="fill:#b8ffff;fill-opacity:0;stroke:#00f5ff;stroke-width:3.33px;"/><path d="M30.354,22.754c0,0 3.381,6.319 3.355,8.68c-0.021,1.89 2.217,5.007 2.701,5.658c0.091,0.125 0.17,0.258 0.238,0.396c0.623,1.322 3.428,6.782 5.919,6.305c2.587,-0.495 6.578,5.213 6.578,5.213c-0,0 -2.641,1.977 -4.77,3.571c-0.696,0.521 -1.571,0.74 -2.43,0.607c-0.859,-0.132 -1.628,-0.605 -2.135,-1.31c-3.568,-4.972 -11.188,-15.589 -14.915,-20.783c-0.567,-0.789 -0.794,-1.773 -0.632,-2.731c0.162,-0.958 0.7,-1.812 1.495,-2.371c2.125,-1.496 4.597,-3.236 4.597,-3.236Z" style="fill:#00f5ff;"/><path d="M30.354,22.754c0,0 3.381,6.319 3.355,8.68c-0.021,1.89 2.217,5.007 2.701,5.658c0.091,0.125 0.17,0.258 0.238,0.396c0.623,1.322 3.428,6.782 5.919,6.305c2.587,-0.495 6.578,5.213 6.578,5.213l-4.77,3.571c-0.696,0.521 -1.571,0.74 -2.43,0.607c-0.859,-0.132 -1.628,-0.605 -2.135,-1.31l-14.915,-20.783c-0.567,-0.789 -0.794,-1.773 -0.632,-2.731c0.162,-0.958 0.7,-1.812 1.495,-2.371l4.597,-3.236Zm9.884,23.999l2.221,3.095l1.883,-1.409c-0.184,-0.187 -0.376,-0.371 -0.571,-0.546c-0.33,-0.297 -0.925,-0.686 -1.098,-0.797l-0.82,0.045l-1.2,-0.237c-0.138,-0.044 -0.276,-0.094 -0.415,-0.15Zm-9.55,-13.307c-0.21,-0.731 -0.319,-1.432 -0.312,-2.049c0.007,-0.647 -0.472,-1.694 -0.915,-2.76c-0.127,-0.305 -0.258,-0.608 -0.39,-0.905l-1.396,0.983c-0.067,0.047 -0.113,0.12 -0.127,0.201c-0.014,0.081 0.006,0.164 0.054,0.232l3.085,4.298Z" style="fill:#00f5ff;"/><path d="M30.992,22.218c0.549,-0.414 1.244,-0.583 1.922,-0.468c0.678,0.115 1.278,0.505 1.659,1.076c0.559,0.839 1.207,1.81 1.81,2.714c0.467,0.7 0.566,1.583 0.266,2.369c-0.3,0.786 -0.962,1.379 -1.777,1.59c-1.394,0.361 -2.669,0.692 -2.669,0.692l-4.272,-5.666c0,0 1.63,-1.229 3.06,-2.307Z" style="fill:#00f5ff;"/><path d="M30.992,22.218c0.549,-0.414 1.244,-0.583 1.922,-0.468c0.678,0.115 1.278,0.505 1.659,1.076l1.81,2.714c0.467,0.7 0.566,1.583 0.266,2.369c-0.3,0.786 -0.962,1.379 -1.777,1.59l-2.669,0.692l-4.272,-5.666l3.06,-2.307Z" style="fill:#00f5ff;"/><path d="M49.815,48.423c0.544,-0.419 0.891,-1.043 0.961,-1.725c0.07,-0.683 -0.145,-1.364 -0.593,-1.884c-0.733,-0.851 -1.602,-1.858 -2.399,-2.784c-0.556,-0.645 -1.392,-0.977 -2.238,-0.889c-0.847,0.088 -1.596,0.585 -2.008,1.33c-0.691,1.252 -1.316,2.385 -1.316,2.385l4.551,5.909c0,0 1.622,-1.249 3.042,-2.343Z" style="fill:#00f5ff;"/><path d="M49.815,48.423l-3.042,2.343l-4.551,-5.909l1.316,-2.385c0.411,-0.745 1.161,-1.242 2.008,-1.33c0.847,-0.088 1.683,0.244 2.238,0.889l2.399,2.784c0.448,0.52 0.662,1.201 0.593,1.884c-0.07,0.683 -0.417,1.307 -0.961,1.725Z" style="fill:#00f5ff;"/></svg>